<?xml version="1.0" encoding="UTF-8" standalone="no"?>
<svg
   width="334.433mm"
   height="396.875mm"
   viewBox="0 0 948 1125"
   version="1.2"
   id="svg126"
   sodipodi:docname="oneoverx.svg"
   inkscape:version="1.4.3 (0d15f75042, 2025-12-25)"
   xmlns:inkscape="http://www.inkscape.org/namespaces/inkscape"
   xmlns:sodipodi="http://sodipodi.sourceforge.net/DTD/sodipodi-0.dtd"
   xmlns="http://www.w3.org/2000/svg"
   xmlns:svg="http://www.w3.org/2000/svg">
  <sodipodi:namedview
     id="namedview126"
     pagecolor="#ffffff"
     bordercolor="#000000"
     borderopacity="0.25"
     inkscape:showpageshadow="2"
     inkscape:pageopacity="0.0"
     inkscape:pagecheckerboard="0"
     inkscape:deskcolor="#d1d1d1"
     inkscape:document-units="mm"
     inkscape:zoom="0.22627417"
     inkscape:cx="101.6466"
     inkscape:cy="1060.6602"
     inkscape:window-width="1020"
     inkscape:window-height="1186"
     inkscape:window-x="0"
     inkscape:window-y="0"
     inkscape:window-maximized="0"
     inkscape:current-layer="g126" />
  <title
     id="title1">Qt SVG Document</title>
  <desc
     id="desc1">Generated with Qt</desc>
  <defs
     id="defs1" />
  <g
     fill="none"
     stroke="black"
     stroke-width="1"
     fill-rule="evenodd"
     stroke-linecap="square"
     stroke-linejoin="bevel"
     id="g126">
    <g
       fill="none"
       stroke="#000000"
       stroke-opacity="1"
       stroke-width="1"
       stroke-linecap="square"
       stroke-linejoin="bevel"
       transform="matrix(1,0,0,1,0,0)"
       font-family="Sans Serif"
       font-size="9"
       font-weight="400"
       font-style="normal"
       id="g1" />
    <g
       fill="none"
       stroke="#000000"
       stroke-opacity="1"
       stroke-width="1"
       stroke-linecap="square"
       stroke-linejoin="bevel"
       transform="matrix(1.00178,0,0,1.00178,0,0)"
       font-family="Sans Serif"
       font-size="9"
       font-weight="400"
       font-style="normal"
       id="g2" />
    <g
       fill="none"
       stroke="#000000"
       stroke-opacity="1"
       stroke-width="1"
       stroke-linecap="square"
       stroke-linejoin="bevel"
       transform="matrix(1.00178,0,0,1.00178,0,0)"
       font-family="Sans Serif"
       font-size="9"
       font-weight="400"
       font-style="normal"
       id="g4" />
    <g
       fill="none"
       stroke="#000000"
       stroke-opacity="1"
       stroke-width="1"
       stroke-linecap="square"
       stroke-linejoin="bevel"
       transform="matrix(1.00178,0,0,1.00178,13.0232,1093.99)"
       font-family="Sans Serif"
       font-size="9"
       font-weight="400"
       font-style="normal"
       id="g5" />
    <g
       fill="none"
       stroke="#000000"
       stroke-opacity="1"
       stroke-width="1"
       stroke-linecap="square"
       stroke-linejoin="bevel"
       transform="matrix(1.00178,0,0,1.00178,13.0232,1093.99)"
       font-family="Sans Serif"
       font-size="9"
       font-weight="400"
       font-style="normal"
       id="g6" />
    <g
       fill="none"
       stroke="#000000"
       stroke-opacity="1"
       stroke-width="1"
       stroke-linecap="square"
       stroke-linejoin="bevel"
       transform="matrix(1.00178,0,0,1.00178,13.0232,1093.99)"
       font-family="Sans Serif"
       font-size="9"
       font-weight="400"
       font-style="normal"
       id="g7" />
    <g
       fill="none"
       stroke="#000000"
       stroke-opacity="1"
       stroke-width="1"
       stroke-linecap="square"
       stroke-linejoin="bevel"
       transform="matrix(1.00178,0,0,1.00178,13.0232,1093.99)"
       font-family="Sans Serif"
       font-size="9"
       font-weight="400"
       font-style="normal"
       id="g8" />
    <g
       fill="none"
       stroke="#000000"
       stroke-opacity="1"
       stroke-width="1"
       stroke-linecap="square"
       stroke-linejoin="bevel"
       transform="matrix(1.00178,0,0,1.00178,13.0232,1093.99)"
       font-family="Sans Serif"
       font-size="9"
       font-weight="400"
       font-style="normal"
       id="g9" />
    <g
       fill="none"
       stroke="#000000"
       stroke-opacity="1"
       stroke-width="1"
       stroke-linecap="square"
       stroke-linejoin="bevel"
       transform="matrix(1.00178,0,0,1.00178,13.0232,1093.99)"
       font-family="Sans Serif"
       font-size="9"
       font-weight="400"
       font-style="normal"
       id="g11" />
    <g
       fill="none"
       stroke="#000000"
       stroke-opacity="1"
       stroke-width="1"
       stroke-linecap="square"
       stroke-linejoin="bevel"
       transform="matrix(1.00178,0,0,1.00178,0,0)"
       font-family="Sans Serif"
       font-size="9"
       font-weight="400"
       font-style="normal"
       id="g12" />
    <g
       fill="none"
       stroke="#000000"
       stroke-opacity="1"
       stroke-width="1"
       stroke-linecap="square"
       stroke-linejoin="bevel"
       transform="matrix(1.00178,0,0,1.00178,0,0)"
       font-family="Sans Serif"
       font-size="9"
       font-weight="400"
       font-style="normal"
       id="g14" />
    <g
       fill="none"
       stroke="#000000"
       stroke-opacity="1"
       stroke-width="1"
       stroke-linecap="square"
       stroke-linejoin="bevel"
       transform="matrix(1.00178,0,0,1.00178,20.0356,826.516)"
       font-family="Sans Serif"
       font-size="9"
       font-weight="400"
       font-style="normal"
       id="g15" />
    <g
       fill="none"
       stroke="#000000"
       stroke-opacity="1"
       stroke-width="1"
       stroke-linecap="square"
       stroke-linejoin="bevel"
       transform="matrix(1.00178,0,0,1.00178,20.0356,826.516)"
       font-family="Sans Serif"
       font-size="9"
       font-weight="400"
       font-style="normal"
       id="g16" />
    <g
       fill="none"
       stroke="#000000"
       stroke-opacity="1"
       stroke-width="1"
       stroke-linecap="square"
       stroke-linejoin="bevel"
       transform="matrix(1.00178,0,0,1.00178,20.0356,826.516)"
       font-family="Sans Serif"
       font-size="9"
       font-weight="400"
       font-style="normal"
       id="g17" />
    <g
       fill="none"
       stroke="#000000"
       stroke-opacity="1"
       stroke-width="1"
       stroke-linecap="square"
       stroke-linejoin="bevel"
       transform="matrix(1.00178,0,0,1.00178,20.0356,826.516)"
       font-family="Sans Serif"
       font-size="9"
       font-weight="400"
       font-style="normal"
       id="g18" />
    <g
       fill="none"
       stroke="#000000"
       stroke-opacity="1"
       stroke-width="1"
       stroke-linecap="square"
       stroke-linejoin="bevel"
       transform="matrix(1.00178,0,0,1.00178,20.0356,826.516)"
       font-family="Sans Serif"
       font-size="9"
       font-weight="400"
       font-style="normal"
       id="g19" />
    <g
       fill="none"
       stroke="#000000"
       stroke-opacity="1"
       stroke-width="1"
       stroke-linecap="square"
       stroke-linejoin="bevel"
       transform="matrix(1.00178,0,0,1.00178,20.0356,826.516)"
       font-family="Sans Serif"
       font-size="9"
       font-weight="400"
       font-style="normal"
       id="g21" />
    <g
       fill="none"
       stroke="#000000"
       stroke-opacity="1"
       stroke-width="1"
       stroke-linecap="square"
       stroke-linejoin="bevel"
       transform="matrix(1.00178,0,0,1.00178,0,0)"
       font-family="Sans Serif"
       font-size="9"
       font-weight="400"
       font-style="normal"
       id="g22" />
    <g
       fill="none"
       stroke="#000000"
       stroke-opacity="1"
       stroke-width="1"
       stroke-linecap="square"
       stroke-linejoin="bevel"
       transform="matrix(1.00178,0,0,1.00178,0,0)"
       font-family="Sans Serif"
       font-size="9"
       font-weight="400"
       font-style="normal"
       id="g24" />
    <g
       fill="none"
       stroke="#000000"
       stroke-opacity="1"
       stroke-width="1"
       stroke-linecap="square"
       stroke-linejoin="bevel"
       transform="matrix(1.00178,0,0,1.00178,21.0374,558.039)"
       font-family="Sans Serif"
       font-size="9"
       font-weight="400"
       font-style="normal"
       id="g25" />
    <g
       fill="none"
       stroke="#000000"
       stroke-opacity="1"
       stroke-width="1"
       stroke-linecap="square"
       stroke-linejoin="bevel"
       transform="matrix(1.00178,0,0,1.00178,21.0374,558.039)"
       font-family="Sans Serif"
       font-size="9"
       font-weight="400"
       font-style="normal"
       id="g26" />
    <g
       fill="none"
       stroke="#000000"
       stroke-opacity="1"
       stroke-width="1"
       stroke-linecap="square"
       stroke-linejoin="bevel"
       transform="matrix(1.00178,0,0,1.00178,21.0374,558.039)"
       font-family="Sans Serif"
       font-size="9"
       font-weight="400"
       font-style="normal"
       id="g27" />
    <g
       fill="none"
       stroke="#000000"
       stroke-opacity="1"
       stroke-width="1"
       stroke-linecap="square"
       stroke-linejoin="bevel"
       transform="matrix(1.00178,0,0,1.00178,21.0374,558.039)"
       font-family="Sans Serif"
       font-size="9"
       font-weight="400"
       font-style="normal"
       id="g28" />
    <g
       fill="none"
       stroke="#000000"
       stroke-opacity="1"
       stroke-width="1"
       stroke-linecap="square"
       stroke-linejoin="bevel"
       transform="matrix(1.00178,0,0,1.00178,21.0374,558.039)"
       font-family="Sans Serif"
       font-size="9"
       font-weight="400"
       font-style="normal"
       id="g29" />
    <g
       fill="none"
       stroke="#000000"
       stroke-opacity="1"
       stroke-width="1"
       stroke-linecap="square"
       stroke-linejoin="bevel"
       transform="matrix(1.00178,0,0,1.00178,21.0374,558.039)"
       font-family="Sans Serif"
       font-size="9"
       font-weight="400"
       font-style="normal"
       id="g31" />
    <g
       fill="none"
       stroke="#000000"
       stroke-opacity="1"
       stroke-width="1"
       stroke-linecap="square"
       stroke-linejoin="bevel"
       transform="matrix(1.00178,0,0,1.00178,0,0)"
       font-family="Sans Serif"
       font-size="9"
       font-weight="400"
       font-style="normal"
       id="g32" />
    <g
       fill="none"
       stroke="#000000"
       stroke-opacity="1"
       stroke-width="1"
       stroke-linecap="square"
       stroke-linejoin="bevel"
       transform="matrix(1.00178,0,0,1.00178,0,0)"
       font-family="Sans Serif"
       font-size="9"
       font-weight="400"
       font-style="normal"
       id="g34" />
    <g
       fill="none"
       stroke="#000000"
       stroke-opacity="1"
       stroke-width="1"
       stroke-linecap="square"
       stroke-linejoin="bevel"
       transform="matrix(1.00178,0,0,1.00178,21.0374,290.563)"
       font-family="Sans Serif"
       font-size="9"
       font-weight="400"
       font-style="normal"
       id="g35" />
    <g
       fill="none"
       stroke="#000000"
       stroke-opacity="1"
       stroke-width="1"
       stroke-linecap="square"
       stroke-linejoin="bevel"
       transform="matrix(1.00178,0,0,1.00178,21.0374,290.563)"
       font-family="Sans Serif"
       font-size="9"
       font-weight="400"
       font-style="normal"
       id="g36" />
    <g
       fill="none"
       stroke="#000000"
       stroke-opacity="1"
       stroke-width="1"
       stroke-linecap="square"
       stroke-linejoin="bevel"
       transform="matrix(1.00178,0,0,1.00178,21.0374,290.563)"
       font-family="Sans Serif"
       font-size="9"
       font-weight="400"
       font-style="normal"
       id="g37" />
    <g
       fill="none"
       stroke="#000000"
       stroke-opacity="1"
       stroke-width="1"
       stroke-linecap="square"
       stroke-linejoin="bevel"
       transform="matrix(1.00178,0,0,1.00178,21.0374,290.563)"
       font-family="Sans Serif"
       font-size="9"
       font-weight="400"
       font-style="normal"
       id="g38" />
    <g
       fill="none"
       stroke="#000000"
       stroke-opacity="1"
       stroke-width="1"
       stroke-linecap="square"
       stroke-linejoin="bevel"
       transform="matrix(1.00178,0,0,1.00178,21.0374,290.563)"
       font-family="Sans Serif"
       font-size="9"
       font-weight="400"
       font-style="normal"
       id="g39" />
    <g
       fill="none"
       stroke="#000000"
       stroke-opacity="1"
       stroke-width="1"
       stroke-linecap="square"
       stroke-linejoin="bevel"
       transform="matrix(1.00178,0,0,1.00178,21.0374,290.563)"
       font-family="Sans Serif"
       font-size="9"
       font-weight="400"
       font-style="normal"
       id="g41" />
    <g
       fill="none"
       stroke="#000000"
       stroke-opacity="1"
       stroke-width="1"
       stroke-linecap="square"
       stroke-linejoin="bevel"
       transform="matrix(1.00178,0,0,1.00178,0,0)"
       font-family="Sans Serif"
       font-size="9"
       font-weight="400"
       font-style="normal"
       id="g42" />
    <g
       fill="none"
       stroke="#000000"
       stroke-opacity="1"
       stroke-width="1"
       stroke-linecap="square"
       stroke-linejoin="bevel"
       transform="matrix(1.00178,0,0,1.00178,0,0)"
       font-family="Sans Serif"
       font-size="9"
       font-weight="400"
       font-style="normal"
       id="g44" />
    <g
       fill="none"
       stroke="#000000"
       stroke-opacity="1"
       stroke-width="1"
       stroke-linecap="square"
       stroke-linejoin="bevel"
       transform="matrix(1.00178,0,0,1.00178,14.0249,23.0879)"
       font-family="Sans Serif"
       font-size="9"
       font-weight="400"
       font-style="normal"
       id="g45" />
    <g
       fill="none"
       stroke="#000000"
       stroke-opacity="1"
       stroke-width="1"
       stroke-linecap="square"
       stroke-linejoin="bevel"
       transform="matrix(1.00178,0,0,1.00178,14.0249,23.0879)"
       font-family="Sans Serif"
       font-size="9"
       font-weight="400"
       font-style="normal"
       id="g46" />
    <g
       fill="none"
       stroke="#000000"
       stroke-opacity="1"
       stroke-width="1"
       stroke-linecap="square"
       stroke-linejoin="bevel"
       transform="matrix(1.00178,0,0,1.00178,14.0249,23.0879)"
       font-family="Sans Serif"
       font-size="9"
       font-weight="400"
       font-style="normal"
       id="g47" />
    <g
       fill="none"
       stroke="#000000"
       stroke-opacity="1"
       stroke-width="1"
       stroke-linecap="square"
       stroke-linejoin="bevel"
       transform="matrix(1.00178,0,0,1.00178,14.0249,23.0879)"
       font-family="Sans Serif"
       font-size="9"
       font-weight="400"
       font-style="normal"
       id="g48" />
    <g
       fill="none"
       stroke="#000000"
       stroke-opacity="1"
       stroke-width="1"
       stroke-linecap="square"
       stroke-linejoin="bevel"
       transform="matrix(1.00178,0,0,1.00178,14.0249,23.0879)"
       font-family="Sans Serif"
       font-size="9"
       font-weight="400"
       font-style="normal"
       id="g49" />
    <g
       fill="none"
       stroke="#000000"
       stroke-opacity="1"
       stroke-width="1"
       stroke-linecap="square"
       stroke-linejoin="bevel"
       transform="matrix(1.00178,0,0,1.00178,14.0249,23.0879)"
       font-family="Sans Serif"
       font-size="9"
       font-weight="400"
       font-style="normal"
       id="g51" />
    <g
       fill="none"
       stroke="#000000"
       stroke-opacity="1"
       stroke-width="1"
       stroke-linecap="square"
       stroke-linejoin="bevel"
       transform="matrix(1.00178,0,0,1.00178,0,0)"
       font-family="Sans Serif"
       font-size="9"
       font-weight="400"
       font-style="normal"
       id="g52" />
    <g
       fill="none"
       stroke="#000000"
       stroke-opacity="1"
       stroke-width="1"
       stroke-linecap="square"
       stroke-linejoin="bevel"
       transform="matrix(1.00178,0,0,1.00178,0,0)"
       font-family="Sans Serif"
       font-size="9"
       font-weight="400"
       font-style="normal"
       id="g54" />
    <g
       fill="none"
       stroke="#000000"
       stroke-opacity="1"
       stroke-width="1"
       stroke-linecap="square"
       stroke-linejoin="bevel"
       transform="matrix(1.00178,0,0,1.00178,29.5525,1112.02)"
       font-family="Sans Serif"
       font-size="9"
       font-weight="400"
       font-style="normal"
       id="g55" />
    <g
       fill="none"
       stroke="#000000"
       stroke-opacity="1"
       stroke-width="1"
       stroke-linecap="square"
       stroke-linejoin="bevel"
       transform="matrix(1.00178,0,0,1.00178,29.5525,1112.02)"
       font-family="Sans Serif"
       font-size="9"
       font-weight="400"
       font-style="normal"
       id="g56" />
    <g
       fill="none"
       stroke="#000000"
       stroke-opacity="1"
       stroke-width="1"
       stroke-linecap="square"
       stroke-linejoin="bevel"
       transform="matrix(1.00178,0,0,1.00178,29.5525,1112.02)"
       font-family="Sans Serif"
       font-size="9"
       font-weight="400"
       font-style="normal"
       id="g57" />
    <g
       fill="none"
       stroke="#000000"
       stroke-opacity="1"
       stroke-width="1"
       stroke-linecap="square"
       stroke-linejoin="bevel"
       transform="matrix(1.00178,0,0,1.00178,29.5525,1112.02)"
       font-family="Sans Serif"
       font-size="9"
       font-weight="400"
       font-style="normal"
       id="g58" />
    <g
       fill="none"
       stroke="#000000"
       stroke-opacity="1"
       stroke-width="1"
       stroke-linecap="square"
       stroke-linejoin="bevel"
       transform="matrix(1.00178,0,0,1.00178,29.5525,1112.02)"
       font-family="Sans Serif"
       font-size="9"
       font-weight="400"
       font-style="normal"
       id="g59" />
    <g
       fill="none"
       stroke="#000000"
       stroke-opacity="1"
       stroke-width="1"
       stroke-linecap="square"
       stroke-linejoin="bevel"
       transform="matrix(1.00178,0,0,1.00178,29.5525,1112.02)"
       font-family="Sans Serif"
       font-size="9"
       font-weight="400"
       font-style="normal"
       id="g61" />
    <g
       fill="none"
       stroke="#000000"
       stroke-opacity="1"
       stroke-width="1"
       stroke-linecap="square"
       stroke-linejoin="bevel"
       transform="matrix(1.00178,0,0,1.00178,0,0)"
       font-family="Sans Serif"
       font-size="9"
       font-weight="400"
       font-style="normal"
       id="g62" />
    <g
       fill="none"
       stroke="#000000"
       stroke-opacity="1"
       stroke-width="1"
       stroke-linecap="square"
       stroke-linejoin="bevel"
       transform="matrix(1.00178,0,0,1.00178,0,0)"
       font-family="Sans Serif"
       font-size="9"
       font-weight="400"
       font-style="normal"
       id="g64" />
    <g
       fill="none"
       stroke="#000000"
       stroke-opacity="1"
       stroke-width="1"
       stroke-linecap="square"
       stroke-linejoin="bevel"
       transform="matrix(1.00178,0,0,1.00178,254.452,1112.02)"
       font-family="Sans Serif"
       font-size="9"
       font-weight="400"
       font-style="normal"
       id="g65" />
    <g
       fill="none"
       stroke="#000000"
       stroke-opacity="1"
       stroke-width="1"
       stroke-linecap="square"
       stroke-linejoin="bevel"
       transform="matrix(1.00178,0,0,1.00178,254.452,1112.02)"
       font-family="Sans Serif"
       font-size="9"
       font-weight="400"
       font-style="normal"
       id="g66" />
    <g
       fill="none"
       stroke="#000000"
       stroke-opacity="1"
       stroke-width="1"
       stroke-linecap="square"
       stroke-linejoin="bevel"
       transform="matrix(1.00178,0,0,1.00178,254.452,1112.02)"
       font-family="Sans Serif"
       font-size="9"
       font-weight="400"
       font-style="normal"
       id="g67" />
    <g
       fill="none"
       stroke="#000000"
       stroke-opacity="1"
       stroke-width="1"
       stroke-linecap="square"
       stroke-linejoin="bevel"
       transform="matrix(1.00178,0,0,1.00178,254.452,1112.02)"
       font-family="Sans Serif"
       font-size="9"
       font-weight="400"
       font-style="normal"
       id="g68" />
    <g
       fill="none"
       stroke="#000000"
       stroke-opacity="1"
       stroke-width="1"
       stroke-linecap="square"
       stroke-linejoin="bevel"
       transform="matrix(1.00178,0,0,1.00178,254.452,1112.02)"
       font-family="Sans Serif"
       font-size="9"
       font-weight="400"
       font-style="normal"
       id="g69" />
    <g
       fill="none"
       stroke="#000000"
       stroke-opacity="1"
       stroke-width="1"
       stroke-linecap="square"
       stroke-linejoin="bevel"
       transform="matrix(1.00178,0,0,1.00178,254.452,1112.02)"
       font-family="Sans Serif"
       font-size="9"
       font-weight="400"
       font-style="normal"
       id="g71" />
    <g
       fill="none"
       stroke="#000000"
       stroke-opacity="1"
       stroke-width="1"
       stroke-linecap="square"
       stroke-linejoin="bevel"
       transform="matrix(1.00178,0,0,1.00178,0,0)"
       font-family="Sans Serif"
       font-size="9"
       font-weight="400"
       font-style="normal"
       id="g72" />
    <g
       fill="none"
       stroke="#000000"
       stroke-opacity="1"
       stroke-width="1"
       stroke-linecap="square"
       stroke-linejoin="bevel"
       transform="matrix(1.00178,0,0,1.00178,0,0)"
       font-family="Sans Serif"
       font-size="9"
       font-weight="400"
       font-style="normal"
       id="g74" />
    <g
       fill="none"
       stroke="#000000"
       stroke-opacity="1"
       stroke-width="1"
       stroke-linecap="square"
       stroke-linejoin="bevel"
       transform="matrix(1.00178,0,0,1.00178,477.349,1112.02)"
       font-family="Sans Serif"
       font-size="9"
       font-weight="400"
       font-style="normal"
       id="g75" />
    <g
       fill="none"
       stroke="#000000"
       stroke-opacity="1"
       stroke-width="1"
       stroke-linecap="square"
       stroke-linejoin="bevel"
       transform="matrix(1.00178,0,0,1.00178,477.349,1112.02)"
       font-family="Sans Serif"
       font-size="9"
       font-weight="400"
       font-style="normal"
       id="g76" />
    <g
       fill="none"
       stroke="#000000"
       stroke-opacity="1"
       stroke-width="1"
       stroke-linecap="square"
       stroke-linejoin="bevel"
       transform="matrix(1.00178,0,0,1.00178,477.349,1112.02)"
       font-family="Sans Serif"
       font-size="9"
       font-weight="400"
       font-style="normal"
       id="g77" />
    <g
       fill="none"
       stroke="#000000"
       stroke-opacity="1"
       stroke-width="1"
       stroke-linecap="square"
       stroke-linejoin="bevel"
       transform="matrix(1.00178,0,0,1.00178,477.349,1112.02)"
       font-family="Sans Serif"
       font-size="9"
       font-weight="400"
       font-style="normal"
       id="g78" />
    <g
       fill="none"
       stroke="#000000"
       stroke-opacity="1"
       stroke-width="1"
       stroke-linecap="square"
       stroke-linejoin="bevel"
       transform="matrix(1.00178,0,0,1.00178,477.349,1112.02)"
       font-family="Sans Serif"
       font-size="9"
       font-weight="400"
       font-style="normal"
       id="g79" />
    <g
       fill="none"
       stroke="#000000"
       stroke-opacity="1"
       stroke-width="1"
       stroke-linecap="square"
       stroke-linejoin="bevel"
       transform="matrix(1.00178,0,0,1.00178,477.349,1112.02)"
       font-family="Sans Serif"
       font-size="9"
       font-weight="400"
       font-style="normal"
       id="g81" />
    <g
       fill="none"
       stroke="#000000"
       stroke-opacity="1"
       stroke-width="1"
       stroke-linecap="square"
       stroke-linejoin="bevel"
       transform="matrix(1.00178,0,0,1.00178,0,0)"
       font-family="Sans Serif"
       font-size="9"
       font-weight="400"
       font-style="normal"
       id="g82" />
    <g
       fill="none"
       stroke="#000000"
       stroke-opacity="1"
       stroke-width="1"
       stroke-linecap="square"
       stroke-linejoin="bevel"
       transform="matrix(1.00178,0,0,1.00178,0,0)"
       font-family="Sans Serif"
       font-size="9"
       font-weight="400"
       font-style="normal"
       id="g84" />
    <g
       fill="none"
       stroke="#000000"
       stroke-opacity="1"
       stroke-width="1"
       stroke-linecap="square"
       stroke-linejoin="bevel"
       transform="matrix(1.00178,0,0,1.00178,698.742,1112.02)"
       font-family="Sans Serif"
       font-size="9"
       font-weight="400"
       font-style="normal"
       id="g85" />
    <g
       fill="none"
       stroke="#000000"
       stroke-opacity="1"
       stroke-width="1"
       stroke-linecap="square"
       stroke-linejoin="bevel"
       transform="matrix(1.00178,0,0,1.00178,698.742,1112.02)"
       font-family="Sans Serif"
       font-size="9"
       font-weight="400"
       font-style="normal"
       id="g86" />
    <g
       fill="none"
       stroke="#000000"
       stroke-opacity="1"
       stroke-width="1"
       stroke-linecap="square"
       stroke-linejoin="bevel"
       transform="matrix(1.00178,0,0,1.00178,698.742,1112.02)"
       font-family="Sans Serif"
       font-size="9"
       font-weight="400"
       font-style="normal"
       id="g87" />
    <g
       fill="none"
       stroke="#000000"
       stroke-opacity="1"
       stroke-width="1"
       stroke-linecap="square"
       stroke-linejoin="bevel"
       transform="matrix(1.00178,0,0,1.00178,698.742,1112.02)"
       font-family="Sans Serif"
       font-size="9"
       font-weight="400"
       font-style="normal"
       id="g88" />
    <g
       fill="none"
       stroke="#000000"
       stroke-opacity="1"
       stroke-width="1"
       stroke-linecap="square"
       stroke-linejoin="bevel"
       transform="matrix(1.00178,0,0,1.00178,698.742,1112.02)"
       font-family="Sans Serif"
       font-size="9"
       font-weight="400"
       font-style="normal"
       id="g89" />
    <g
       fill="none"
       stroke="#000000"
       stroke-opacity="1"
       stroke-width="1"
       stroke-linecap="square"
       stroke-linejoin="bevel"
       transform="matrix(1.00178,0,0,1.00178,698.742,1112.02)"
       font-family="Sans Serif"
       font-size="9"
       font-weight="400"
       font-style="normal"
       id="g91" />
    <g
       fill="none"
       stroke="#000000"
       stroke-opacity="1"
       stroke-width="1"
       stroke-linecap="square"
       stroke-linejoin="bevel"
       transform="matrix(1.00178,0,0,1.00178,0,0)"
       font-family="Sans Serif"
       font-size="9"
       font-weight="400"
       font-style="normal"
       id="g92" />
    <g
       fill="none"
       stroke="#000000"
       stroke-opacity="1"
       stroke-width="1"
       stroke-linecap="square"
       stroke-linejoin="bevel"
       transform="matrix(1.00178,0,0,1.00178,0,0)"
       font-family="Sans Serif"
       font-size="9"
       font-weight="400"
       font-style="normal"
       id="g94" />
    <g
       fill="none"
       stroke="#000000"
       stroke-opacity="1"
       stroke-width="1"
       stroke-linecap="square"
       stroke-linejoin="bevel"
       transform="matrix(1.00178,0,0,1.00178,917.631,1112.02)"
       font-family="Sans Serif"
       font-size="9"
       font-weight="400"
       font-style="normal"
       id="g95" />
    <g
       fill="none"
       stroke="#000000"
       stroke-opacity="1"
       stroke-width="1"
       stroke-linecap="square"
       stroke-linejoin="bevel"
       transform="matrix(1.00178,0,0,1.00178,917.631,1112.02)"
       font-family="Sans Serif"
       font-size="9"
       font-weight="400"
       font-style="normal"
       id="g96" />
    <g
       fill="none"
       stroke="#000000"
       stroke-opacity="1"
       stroke-width="1"
       stroke-linecap="square"
       stroke-linejoin="bevel"
       transform="matrix(1.00178,0,0,1.00178,917.631,1112.02)"
       font-family="Sans Serif"
       font-size="9"
       font-weight="400"
       font-style="normal"
       id="g97" />
    <g
       fill="none"
       stroke="#000000"
       stroke-opacity="1"
       stroke-width="1"
       stroke-linecap="square"
       stroke-linejoin="bevel"
       transform="matrix(1.00178,0,0,1.00178,917.631,1112.02)"
       font-family="Sans Serif"
       font-size="9"
       font-weight="400"
       font-style="normal"
       id="g98" />
    <g
       fill="none"
       stroke="#000000"
       stroke-opacity="1"
       stroke-width="1"
       stroke-linecap="square"
       stroke-linejoin="bevel"
       transform="matrix(1.00178,0,0,1.00178,917.631,1112.02)"
       font-family="Sans Serif"
       font-size="9"
       font-weight="400"
       font-style="normal"
       id="g99" />
    <g
       fill="none"
       stroke="#000000"
       stroke-opacity="1"
       stroke-width="1"
       stroke-linecap="square"
       stroke-linejoin="bevel"
       transform="matrix(1.00178,0,0,1.00178,917.631,1112.02)"
       font-family="Sans Serif"
       font-size="9"
       font-weight="400"
       font-style="normal"
       id="g101" />
    <g
       fill="none"
       stroke="#000000"
       stroke-opacity="1"
       stroke-width="1"
       stroke-linecap="square"
       stroke-linejoin="bevel"
       transform="matrix(1.00178,0,0,1.00178,0,0)"
       font-family="Sans Serif"
       font-size="9"
       font-weight="400"
       font-style="normal"
       id="g102" />
    <g
       fill="none"
       stroke="#000000"
       stroke-opacity="1"
       stroke-width="1"
       stroke-linecap="square"
       stroke-linejoin="bevel"
       transform="matrix(1.00178,0,0,1.00178,0,0)"
       font-family="Sans Serif"
       font-size="9"
       font-weight="400"
       font-style="normal"
       id="g104" />
    <g
       fill="none"
       stroke="#000000"
       stroke-opacity="1"
       stroke-width="1"
       stroke-linecap="square"
       stroke-linejoin="bevel"
       transform="matrix(1.00178,0,0,1.00178,843.374,21.0374)"
       font-family="Sans Serif"
       font-size="9"
       font-weight="400"
       font-style="normal"
       id="g105" />
    <g
       fill="none"
       stroke="#000000"
       stroke-opacity="1"
       stroke-width="1"
       stroke-linecap="square"
       stroke-linejoin="bevel"
       transform="matrix(1.00178,0,0,1.00178,843.374,21.0374)"
       font-family="Sans Serif"
       font-size="9"
       font-weight="400"
       font-style="normal"
       id="g106" />
    <g
       fill="none"
       stroke="#000000"
       stroke-opacity="1"
       stroke-width="1"
       stroke-linecap="square"
       stroke-linejoin="bevel"
       transform="matrix(1.00178,0,0,1.00178,843.374,21.0374)"
       font-family="Sans Serif"
       font-size="9"
       font-weight="400"
       font-style="normal"
       id="g107" />
    <g
       fill="none"
       stroke="#000000"
       stroke-opacity="1"
       stroke-width="1"
       stroke-linecap="square"
       stroke-linejoin="bevel"
       transform="matrix(1.00178,0,0,1.00178,843.374,21.0374)"
       font-family="Sans Serif"
       font-size="9"
       font-weight="400"
       font-style="normal"
       id="g109" />
    <g
       fill="none"
       stroke="#000000"
       stroke-opacity="1"
       stroke-width="1"
       stroke-linecap="square"
       stroke-linejoin="bevel"
       transform="matrix(1,0,0,1,0,0)"
       font-family="Sans Serif"
       font-size="9"
       font-weight="400"
       font-style="normal"
       id="g110" />
    <g
       fill="none"
       stroke="#000000"
       stroke-opacity="1"
       stroke-width="1"
       stroke-linecap="square"
       stroke-linejoin="bevel"
       transform="matrix(1.00178,0,0,1.00178,843.374,21.0374)"
       font-family="Sans Serif"
       font-size="9"
       font-weight="400"
       font-style="normal"
       id="g111" />
    <g
       fill="none"
       stroke="#000000"
       stroke-opacity="1"
       stroke-width="1"
       stroke-linecap="square"
       stroke-linejoin="bevel"
       transform="matrix(1.00178,0,0,1.00178,843.374,21.0374)"
       font-family="Sans Serif"
       font-size="9"
       font-weight="400"
       font-style="normal"
       id="g112" />
    <g
       fill="none"
       stroke="#000000"
       stroke-opacity="1"
       stroke-width="1"
       stroke-linecap="square"
       stroke-linejoin="bevel"
       transform="matrix(1.00178,0,0,1.00178,843.374,21.0374)"
       font-family="Sans Serif"
       font-size="9"
       font-weight="400"
       font-style="normal"
       id="g113" />
    <g
       fill="none"
       stroke="#000000"
       stroke-opacity="1"
       stroke-width="1"
       stroke-linecap="square"
       stroke-linejoin="bevel"
       transform="matrix(1.00178,0,0,1.00178,0,0)"
       font-family="Sans Serif"
       font-size="9"
       font-weight="400"
       font-style="normal"
       id="g114" />
    <g
       fill="none"
       stroke="#000000"
       stroke-opacity="1"
       stroke-width="1"
       stroke-linecap="square"
       stroke-linejoin="bevel"
       transform="matrix(1.00178,0,0,1.00178,0,0)"
       font-family="Sans Serif"
       font-size="9"
       font-weight="400"
       font-style="normal"
       id="g116" />
    <g
       fill="none"
       stroke="#000000"
       stroke-opacity="1"
       stroke-width="1"
       stroke-linecap="square"
       stroke-linejoin="bevel"
       transform="matrix(1.00178,0,0,1.00178,0,0)"
       font-family="Sans Serif"
       font-size="9"
       font-weight="400"
       font-style="normal"
       id="g117" />
    <g
       fill="none"
       stroke="#000000"
       stroke-opacity="1"
       stroke-width="1"
       stroke-linecap="square"
       stroke-linejoin="bevel"
       transform="matrix(1.00178,0,0,1.00178,0,0)"
       font-family="Sans Serif"
       font-size="9"
       font-weight="400"
       font-style="normal"
       id="g118" />
    <g
       fill="none"
       stroke="#000000"
       stroke-opacity="1"
       stroke-width="1"
       stroke-linecap="square"
       stroke-linejoin="bevel"
       transform="matrix(1.00178,0,0,1.00178,0,0)"
       font-family="Sans Serif"
       font-size="9"
       font-weight="400"
       font-style="normal"
       id="g119" />
    <g
       fill="none"
       stroke="#9400d3"
       stroke-opacity="1"
       stroke-width="1"
       stroke-linecap="round"
       stroke-linejoin="round"
       transform="matrix(1.00178,0,0,1.00178,-1206.5015,-72.920422)"
       font-family="'Sans Serif'"
       font-size="9px"
       font-weight="400"
       font-style="normal"
       id="g120"
       style="stroke:#ef9f76;stroke-width:8.48883;stroke-dasharray:none;stroke-opacity:1"
       inkscape:export-filename="oneoverx.png"
       inkscape:export-xdpi="96"
       inkscape:export-ydpi="96">
      <polyline
         fill="none"
         vector-effect="none"
         points="38.5,557.8 38.5,557.8 39.4,557.8 40.3,557.8 41.2,557.8 42,557.8 42.9,557.8 43.8,557.9 44.7,557.9 45.6,557.9 46.5,557.9 47.4,557.9 48.3,557.9 49.1,557.9 50,557.9 50.9,557.9 51.8,558 52.7,558 53.6,558 54.5,558 55.4,558 56.2,558 57.1,558 58,558 58.9,558.1 59.8,558.1 60.7,558.1 61.6,558.1 62.5,558.1 63.3,558.1 64.2,558.1 65.1,558.1 66,558.1 66.9,558.2 67.8,558.2 68.7,558.2 69.6,558.2 70.4,558.2 71.3,558.2 72.2,558.2 73.1,558.2 74,558.3 74.9,558.3 75.8,558.3 76.7,558.3 77.5,558.3 78.4,558.3 79.3,558.3 80.2,558.3 81.1,558.4 82,558.4 82.9,558.4 83.8,558.4 84.6,558.4 85.5,558.4 86.4,558.4 87.3,558.5 88.2,558.5 89.1,558.5 90,558.5 90.8,558.5 91.7,558.5 92.6,558.5 93.5,558.6 94.4,558.6 95.3,558.6 96.2,558.6 97.1,558.6 97.9,558.6 98.8,558.6 99.7,558.7 100.6,558.7 101.5,558.7 102.4,558.7 103.3,558.7 104.2,558.7 105,558.7 105.9,558.8 106.8,558.8 107.7,558.8 108.6,558.8 109.5,558.8 110.4,558.8 111.3,558.8 112.1,558.9 113,558.9 113.9,558.9 114.8,558.9 115.7,558.9 116.6,558.9 117.5,559 118.4,559 119.2,559 120.1,559 121,559 121.9,559 122.8,559 123.7,559.1 124.6,559.1 125.5,559.1 126.3,559.1 127.2,559.1 128.1,559.1 129,559.2 129.9,559.2 130.8,559.2 131.7,559.2 132.6,559.2 133.4,559.3 134.3,559.3 135.2,559.3 136.1,559.3 137,559.3 137.9,559.3 138.8,559.4 139.7,559.4 140.5,559.4 141.4,559.4 142.3,559.4 143.2,559.4 144.1,559.5 145,559.5 145.9,559.5 146.7,559.5 147.6,559.5 148.5,559.6 149.4,559.6 150.3,559.6 151.2,559.6 152.1,559.6 153,559.7 153.8,559.7 154.7,559.7 155.6,559.7 156.5,559.7 157.4,559.8 158.3,559.8 159.2,559.8 160.1,559.8 160.9,559.8 161.8,559.9 162.7,559.9 163.6,559.9 164.5,559.9 165.4,559.9 166.3,560 167.2,560 168,560 168.9,560 169.8,560 170.7,560.1 171.6,560.1 172.5,560.1 173.4,560.1 174.3,560.2 175.1,560.2 176,560.2 176.9,560.2 177.8,560.2 178.7,560.3 179.6,560.3 180.5,560.3 181.4,560.3 182.2,560.4 183.1,560.4 184,560.4 184.9,560.4 185.8,560.5 186.7,560.5 187.6,560.5 188.5,560.5 189.3,560.6 190.2,560.6 191.1,560.6 192,560.6 192.9,560.7 193.8,560.7 194.7,560.7 195.5,560.7 196.4,560.8 197.3,560.8 198.2,560.8 199.1,560.8 200,560.9 200.9,560.9 201.8,560.9 202.6,560.9 203.5,561 204.4,561 205.3,561 206.2,561 207.1,561.1 208,561.1 208.9,561.1 209.7,561.2 210.6,561.2 211.5,561.2 212.4,561.2 213.3,561.3 214.2,561.3 215.1,561.3 216,561.4 216.8,561.4 217.7,561.4 218.6,561.5 219.5,561.5 220.4,561.5 221.3,561.5 222.2,561.6 223.1,561.6 223.9,561.6 224.8,561.7 225.7,561.7 226.6,561.7 227.5,561.8 228.4,561.8 229.3,561.8 230.2,561.9 231,561.9 231.9,561.9 232.8,562 233.7,562 234.6,562 235.5,562.1 236.4,562.1 237.3,562.1 238.1,562.2 239,562.2 239.9,562.2 240.8,562.3 241.7,562.3 242.6,562.4 243.5,562.4 244.4,562.4 245.2,562.5 246.1,562.5 247,562.5 247.9,562.6 248.8,562.6 249.7,562.7 250.6,562.7 251.4,562.7 252.3,562.8 253.2,562.8 254.1,562.9 255,562.9 255.9,562.9 256.8,563 257.7,563 258.5,563.1 259.4,563.1 260.3,563.1 261.2,563.2 262.1,563.2 263,563.3 263.9,563.3 264.8,563.4 265.6,563.4 266.5,563.5 267.4,563.5 268.3,563.6 269.2,563.6 270.1,563.6 271,563.7 271.9,563.7 272.7,563.8 273.6,563.8 274.5,563.9 275.4,563.9 276.3,564 277.2,564 278.1,564.1 279,564.1 279.8,564.2 280.7,564.2 281.6,564.3 282.5,564.3 283.4,564.4 284.3,564.4 285.2,564.5 286.1,564.6 286.9,564.6 287.8,564.7 288.7,564.7 289.6,564.8 290.5,564.8 291.4,564.9 292.3,565 293.2,565 294,565.1 294.9,565.1 295.8,565.2 296.7,565.3 297.6,565.3 298.5,565.4 299.4,565.4 300.2,565.5 301.1,565.6 302,565.6 302.9,565.7 303.8,565.8 304.7,565.8 305.6,565.9 306.5,566 307.3,566 308.2,566.1 309.1,566.2 310,566.2 310.9,566.3 311.8,566.4 312.7,566.5 313.6,566.5 314.4,566.6 315.3,566.7 316.2,566.8 317.1,566.8 318,566.9 318.9,567 319.8,567.1 320.7,567.2 321.5,567.2 322.4,567.3 323.3,567.4 324.2,567.5 325.1,567.6 326,567.7 326.9,567.7 327.8,567.8 328.6,567.9 329.5,568 330.4,568.1 331.3,568.2 332.2,568.3 333.1,568.4 334,568.5 334.9,568.6 335.7,568.7 336.6,568.8 337.5,568.9 338.4,569 339.3,569.1 340.2,569.2 341.1,569.3 342,569.4 342.8,569.5 343.7,569.6 344.6,569.7 345.5,569.8 346.4,570 347.3,570.1 348.2,570.2 349.1,570.3 349.9,570.4 350.8,570.5 351.7,570.7 352.6,570.8 353.5,570.9 354.4,571.1 355.3,571.2 356.1,571.3 357,571.5 357.9,571.6 358.8,571.7 359.7,571.9 360.6,572 361.5,572.2 362.4,572.3 363.2,572.4 364.1,572.6 365,572.8 365.9,572.9 366.8,573.1 367.7,573.2 368.6,573.4 369.5,573.6 370.3,573.7 371.2,573.9 372.1,574.1 373,574.2 373.9,574.4 374.8,574.6 375.7,574.8 376.6,575 377.4,575.2 378.3,575.4 379.2,575.6 380.1,575.8 381,576 381.9,576.2 382.8,576.4 383.7,576.6 384.5,576.8 385.4,577.1 386.3,577.3 387.2,577.5 388.1,577.8 389,578 389.9,578.2 390.8,578.5 391.6,578.8 392.5,579 393.4,579.3 394.3,579.6 395.2,579.8 396.1,580.1 397,580.4 397.9,580.7 398.7,581 399.6,581.3 400.5,581.6 401.4,581.9 402.3,582.3 403.2,582.6 404.1,583 404.9,583.3 405.8,583.7 406.7,584 407.6,584.4 408.5,584.8 409.4,585.2 410.3,585.6 411.2,586 412,586.5 412.9,586.9 413.8,587.3 414.7,587.8 415.6,588.3 416.5,588.8 417.4,589.3 418.3,589.8 419.1,590.3 420,590.9 420.9,591.4 421.8,592 422.7,592.6 423.6,593.2 424.5,593.8 425.4,594.5 426.2,595.2 427.1,595.9 428,596.6 428.9,597.3 429.8,598.1 430.7,598.9 431.6,599.7 432.5,600.6 433.3,601.4 434.2,602.3 435.1,603.3 436,604.3 436.9,605.3 437.8,606.4 438.7,607.5 439.6,608.7 440.4,609.9 441.3,611.1 442.2,612.4 443.1,613.8 444,615.3 444.9,616.8 445.8,618.4 446.7,620 447.5,621.8 448.4,623.6 449.3,625.6 450.2,627.6 451.1,629.8 452,632.1 452.9,634.6 453.8,637.2 454.6,640 455.5,642.9 456.4,646.1 457.3,649.5 458.2,653.2 459.1,657.1 460,661.4 460.8,666 461.7,671.1 462.6,676.6 463.5,682.7 464.4,689.4 465.3,696.8 466.2,705 467.1,714.2 467.9,724.7 468.8,736.6 469.7,750.2 470.6,766 471.5,784.6 472.4,806.7 473.3,833.5 474.2,866.5 475,908.4 475.9,963.2 476.8,1037.8 476.8,1037.8 477.2,1086.9 "
         id="polyline119"
         style="stroke:#ef9f76;stroke-width:8.48883;stroke-dasharray:none;stroke-opacity:1" />
      <polyline
         fill="none"
         vector-effect="none"
         points="486.1,18 486.6,67.1 487.5,141.7 488.4,196.5 489.2,238.4 490.1,271.4 491,298.2 491.9,320.3 492.8,338.9 493.7,354.7 494.6,368.3 495.5,380.2 496.3,390.7 497.2,399.9 498.1,408.1 499,415.5 499.9,422.2 500.8,428.3 501.7,433.8 502.6,438.9 503.4,443.5 504.3,447.8 505.2,451.7 506.1,455.4 507,458.8 507.9,462 508.8,464.9 509.6,467.7 510.5,470.3 511.4,472.8 512.3,475.1 513.2,477.3 514.1,479.3 515,481.3 515.9,483.1 516.7,484.9 517.6,486.5 518.5,488.1 519.4,489.6 520.3,491.1 521.2,492.5 522.1,493.8 523,495 523.8,496.2 524.7,497.4 525.6,498.5 526.5,499.6 527.4,500.6 528.3,501.6 529.2,502.6 530.1,503.5 530.9,504.3 531.8,505.2 532.7,506 533.6,506.8 534.5,507.6 535.4,508.3 536.3,509 537.2,509.7 538,510.4 538.9,511.1 539.8,511.7 540.7,512.3 541.6,512.9 542.5,513.5 543.4,514 544.3,514.6 545.1,515.1 546,515.6 546.9,516.1 547.8,516.6 548.7,517.1 549.6,517.6 550.5,518 551.4,518.4 552.2,518.9 553.1,519.3 554,519.7 554.9,520.1 555.8,520.5 556.7,520.9 557.6,521.2 558.5,521.6 559.3,521.9 560.2,522.3 561.1,522.6 562,523 562.9,523.3 563.8,523.6 564.7,523.9 565.5,524.2 566.4,524.5 567.3,524.8 568.2,525.1 569.1,525.3 570,525.6 570.9,525.9 571.8,526.1 572.6,526.4 573.5,526.7 574.4,526.9 575.3,527.1 576.2,527.4 577.1,527.6 578,527.8 578.9,528.1 579.7,528.3 580.6,528.5 581.5,528.7 582.4,528.9 583.3,529.1 584.2,529.3 585.1,529.5 586,529.7 586.8,529.9 587.7,530.1 588.6,530.3 589.5,530.5 590.4,530.7 591.3,530.8 592.2,531 593.1,531.2 593.9,531.3 594.8,531.5 595.7,531.7 596.6,531.8 597.5,532 598.4,532.1 599.3,532.3 600.2,532.5 601,532.6 601.9,532.7 602.8,532.9 603.7,533 604.6,533.2 605.5,533.3 606.4,533.4 607.3,533.6 608.1,533.7 609,533.8 609.9,534 610.8,534.1 611.7,534.2 612.6,534.4 613.5,534.5 614.3,534.6 615.2,534.7 616.1,534.8 617,534.9 617.9,535.1 618.8,535.2 619.7,535.3 620.6,535.4 621.4,535.5 622.3,535.6 623.2,535.7 624.1,535.8 625,535.9 625.9,536 626.8,536.1 627.7,536.2 628.5,536.3 629.4,536.4 630.3,536.5 631.2,536.6 632.1,536.7 633,536.8 633.9,536.9 634.8,537 635.6,537.1 636.5,537.2 637.4,537.2 638.3,537.3 639.2,537.4 640.1,537.5 641,537.6 641.9,537.7 642.7,537.7 643.6,537.8 644.5,537.9 645.4,538 646.3,538.1 647.2,538.1 648.1,538.2 649,538.3 649.8,538.4 650.7,538.4 651.6,538.5 652.5,538.6 653.4,538.7 654.3,538.7 655.2,538.8 656.1,538.9 656.9,538.9 657.8,539 658.7,539.1 659.6,539.1 660.5,539.2 661.4,539.3 662.3,539.3 663.2,539.4 664,539.5 664.9,539.5 665.8,539.6 666.7,539.6 667.6,539.7 668.5,539.8 669.4,539.8 670.2,539.9 671.1,539.9 672,540 672.9,540.1 673.8,540.1 674.7,540.2 675.6,540.2 676.5,540.3 677.3,540.3 678.2,540.4 679.1,540.5 680,540.5 680.9,540.6 681.8,540.6 682.7,540.7 683.6,540.7 684.4,540.8 685.3,540.8 686.2,540.9 687.1,540.9 688,541 688.9,541 689.8,541.1 690.7,541.1 691.5,541.2 692.4,541.2 693.3,541.3 694.2,541.3 695.1,541.3 696,541.4 696.9,541.4 697.8,541.5 698.6,541.5 699.5,541.6 700.4,541.6 701.3,541.7 702.2,541.7 703.1,541.8 704,541.8 704.9,541.8 705.7,541.9 706.6,541.9 707.5,542 708.4,542 709.3,542 710.2,542.1 711.1,542.1 712,542.2 712.8,542.2 713.7,542.2 714.6,542.3 715.5,542.3 716.4,542.4 717.3,542.4 718.2,542.4 719,542.5 719.9,542.5 720.8,542.5 721.7,542.6 722.6,542.6 723.5,542.7 724.4,542.7 725.3,542.7 726.1,542.8 727,542.8 727.9,542.8 728.8,542.9 729.7,542.9 730.6,542.9 731.5,543 732.4,543 733.2,543 734.1,543.1 735,543.1 735.9,543.1 736.8,543.2 737.7,543.2 738.6,543.2 739.5,543.3 740.3,543.3 741.2,543.3 742.1,543.4 743,543.4 743.9,543.4 744.8,543.4 745.7,543.5 746.6,543.5 747.4,543.5 748.3,543.6 749.2,543.6 750.1,543.6 751,543.7 751.9,543.7 752.8,543.7 753.7,543.7 754.5,543.8 755.4,543.8 756.3,543.8 757.2,543.9 758.1,543.9 759,543.9 759.9,543.9 760.8,544 761.6,544 762.5,544 763.4,544 764.3,544.1 765.2,544.1 766.1,544.1 767,544.1 767.9,544.2 768.7,544.2 769.6,544.2 770.5,544.2 771.4,544.3 772.3,544.3 773.2,544.3 774.1,544.3 774.9,544.4 775.8,544.4 776.7,544.4 777.6,544.4 778.5,544.5 779.4,544.5 780.3,544.5 781.2,544.5 782,544.6 782.9,544.6 783.8,544.6 784.7,544.6 785.6,544.7 786.5,544.7 787.4,544.7 788.3,544.7 789.1,544.7 790,544.8 790.9,544.8 791.8,544.8 792.7,544.8 793.6,544.9 794.5,544.9 795.4,544.9 796.2,544.9 797.1,544.9 798,545 798.9,545 799.8,545 800.7,545 801.6,545 802.5,545.1 803.3,545.1 804.2,545.1 805.1,545.1 806,545.1 806.9,545.2 807.8,545.2 808.7,545.2 809.6,545.2 810.4,545.2 811.3,545.3 812.2,545.3 813.1,545.3 814,545.3 814.9,545.3 815.8,545.4 816.7,545.4 817.5,545.4 818.4,545.4 819.3,545.4 820.2,545.5 821.1,545.5 822,545.5 822.9,545.5 823.7,545.5 824.6,545.5 825.5,545.6 826.4,545.6 827.3,545.6 828.2,545.6 829.1,545.6 830,545.6 830.8,545.7 831.7,545.7 832.6,545.7 833.5,545.7 834.4,545.7 835.3,545.8 836.2,545.8 837.1,545.8 837.9,545.8 838.8,545.8 839.7,545.8 840.6,545.9 841.5,545.9 842.4,545.9 843.3,545.9 844.2,545.9 845,545.9 845.9,545.9 846.8,546 847.7,546 848.6,546 849.5,546 850.4,546 851.3,546 852.1,546.1 853,546.1 853.9,546.1 854.8,546.1 855.7,546.1 856.6,546.1 857.5,546.1 858.4,546.2 859.2,546.2 860.1,546.2 861,546.2 861.9,546.2 862.8,546.2 863.7,546.2 864.6,546.3 865.5,546.3 866.3,546.3 867.2,546.3 868.1,546.3 869,546.3 869.9,546.3 870.8,546.4 871.7,546.4 872.6,546.4 873.4,546.4 874.3,546.4 875.2,546.4 876.1,546.4 877,546.5 877.9,546.5 878.8,546.5 879.6,546.5 880.5,546.5 881.4,546.5 882.3,546.5 883.2,546.6 884.1,546.6 885,546.6 885.9,546.6 886.7,546.6 887.6,546.6 888.5,546.6 889.4,546.6 890.3,546.7 891.2,546.7 892.1,546.7 893,546.7 893.8,546.7 894.7,546.7 895.6,546.7 896.5,546.7 897.4,546.8 898.3,546.8 899.2,546.8 900.1,546.8 900.9,546.8 901.8,546.8 902.7,546.8 903.6,546.8 904.5,546.8 905.4,546.9 906.3,546.9 907.2,546.9 908,546.9 908.9,546.9 909.8,546.9 910.7,546.9 911.6,546.9 912.5,547 913.4,547 914.3,547 915.1,547 916,547 916.9,547 917.8,547 918.7,547 919.6,547 920.5,547.1 921.4,547.1 922.2,547.1 923.1,547.1 924,547.1 924.9,547.1 "
         id="polyline120"
         style="stroke:#ef9f76;stroke-width:8.48883;stroke-dasharray:none;stroke-opacity:1" />
    </g>
    <g
       fill="none"
       stroke="#000000"
       stroke-opacity="1"
       stroke-width="1"
       stroke-linecap="square"
       stroke-linejoin="bevel"
       transform="matrix(1.00178,0,0,1.00178,0,0)"
       font-family="Sans Serif"
       font-size="9"
       font-weight="400"
       font-style="normal"
       id="g121" />
    <g
       fill="none"
       stroke="#000000"
       stroke-opacity="1"
       stroke-width="1"
       stroke-linecap="square"
       stroke-linejoin="bevel"
       transform="matrix(1.00178,0,0,1.00178,0,0)"
       font-family="Sans Serif"
       font-size="9"
       font-weight="400"
       font-style="normal"
       id="g122" />
    <g
       fill="none"
       stroke="#000000"
       stroke-opacity="1"
       stroke-width="1"
       stroke-linecap="square"
       stroke-linejoin="bevel"
       transform="matrix(1.00178,0,0,1.00178,0,0)"
       font-family="Sans Serif"
       font-size="9"
       font-weight="400"
       font-style="normal"
       id="g124" />
    <g
       fill="none"
       stroke="#000000"
       stroke-opacity="1"
       stroke-width="1"
       stroke-linecap="square"
       stroke-linejoin="bevel"
       transform="matrix(1,0,0,1,0,0)"
       font-family="Sans Serif"
       font-size="9"
       font-weight="400"
       font-style="normal"
       id="g125" />
  </g>
</svg>
